<?xml version="1.0" encoding="utf-8"?>
<!-- Generator: Adobe Illustrator 25.0.0, SVG Export Plug-In . SVG Version: 6.00 Build 0)  -->
<svg version="1.1" id="Layer_1" xmlns:svgjs="http://svgjs.dev/svgjs"
	 xmlns="http://www.w3.org/2000/svg" xmlns:xlink="http://www.w3.org/1999/xlink" x="0px" y="0px" viewBox="0 0 1000 1000"
	 style="enable-background:new 0 0 1000 1000;" xml:space="preserve">
<style type="text/css">
	.st0{display:none;fill:none;}
</style>
<g transform="matrix(0.7,0,0,0.7,149.57575757575756,282.1265587044535)">
	<g id="tight-bounds" transform="matrix(1,0,0,1,0.2400000000000091,-0.09999999999999432)">
		<g>
			<g transform="matrix(1,0,0,1,75.54432,69.16157910447762)">
				<g>
					<g>
						<g>
							<g>
								<g>
									<g transform="matrix(1,0,0,1,0,0)">
										<path id="text-0" d="M137.2,396.5H87.5L158,46.1H53.2V5.5h156.4v25.1L137.2,396.5z M406,396.5h-49.2V291.7H243.4v-54.1
											L345.2,5.5H406v240.4H450v45.8H406V396.5z M356.8,68.3l-63.7,177.6h63.7V68.3z M583.2,400.3L583.2,400.3
											c-10,0-18.9-2.5-26.8-7.5c-7.9-5-14.7-10.5-20.5-16.6l0,0v20.3h-51.6V5.5h51.6v134.2c6.1-7.1,13.4-13.2,21.9-18.3
											c8.6-5.1,18.8-7.7,30.7-7.7l0,0c14.5,0,26,3.8,34.5,11.3c8.6,7.6,14.9,17.1,19.1,28.5c4.2,11.5,6.9,23,8.2,34.7
											c1.3,11.8,1.9,21.8,1.9,30.2l0,0v67.6c0,19.6-1.9,38.2-5.8,55.7c-3.9,17.6-10.8,31.7-20.8,42.5
											C615.7,394.9,601.5,400.3,583.2,400.3z M572.6,359.8L572.6,359.8c9,0,15.4-3.3,19.3-9.9c3.9-6.6,6.3-15.5,7.2-26.7
											c1-11.3,1.4-23.6,1.4-37.2l0,0v-67.6c0-11.6-0.6-22.3-1.9-32.1c-1.3-9.8-4-17.6-8.2-23.4c-4.2-5.8-10.8-8.7-19.8-8.7l0,0
											c-6.8,0-13.1,1.4-19.1,4.3c-5.9,2.9-11.1,6.1-15.6,9.7l0,0v179.1c4.5,3.5,9.9,6.5,16.1,9
											C558.3,358.6,565.2,359.8,572.6,359.8z M700.8,466.4h-6.3v-39.6c12.5,0,22.5-0.5,29.9-1.6c7.4-1.2,12.7-3.2,15.9-6.3
											c3.2-3.1,4.8-7.4,4.8-12.8l0,0c0-2.9-1.1-9.3-3.4-19.3c-2.3-10-4.7-20.6-7.2-31.9l0,0l-56-237.5h52.1L768.4,326
											l36.2-208.5h52.1l-66.6,294.4c-2.9,13.5-8.2,24.2-15.9,32.1c-7.7,7.9-17.6,13.5-29.6,17.1
											C732.5,464.7,717.9,466.4,700.8,466.4L700.8,466.4z M1044,396.5h-49.2V291.7H881.3v-54.1L983.2,5.5h60.8v240.4h43.9v45.8
											H1044V396.5z M994.8,68.3l-63.7,177.6h63.7V68.3z"/>
									</g>
								</g>
							</g>
						</g>
					</g>
				</g>
			</g>
			<path d="M791.6,49.3V-162h-934.3v934.3h934.3V561H750v169.7h-851.1v-851.1H750V49.3H791.6z"/>
		</g>
		<rect x="-191.1" y="-218.1" class="st0" width="1674.4" height="1046.5"/>
	</g>
</g>
</svg>
