<?xml version="1.0" standalone="no"?>
<!DOCTYPE svg PUBLIC "-//W3C//DTD SVG 20010904//EN"
 "http://www.w3.org/TR/2001/REC-SVG-20010904/DTD/svg10.dtd">
<svg version="1.0" xmlns="http://www.w3.org/2000/svg"
 width="700.000000pt" height="700.000000pt" viewBox="0 0 700.000000 700.000000"
 preserveAspectRatio="xMidYMid meet">
<metadata>
Created by potrace 1.14, written by Peter Selinger 2001-2017
</metadata>
<g transform="translate(0.000000,700.000000) scale(0.100000,-0.100000)"
fill="#000000" stroke="none">
<path d="M350 3531 l0 -2290 2288 2 2287 2 0 515 0 515 -100 0 -100 0 -1 -401
c0 -221 -3 -408 -6 -415 -5 -12 -329 -14 -2079 -13 -1141 1 -2077 2 -2080 3
-7 1 -10 4113 -4 4146 4 20 12 20 2079 20 1141 0 2078 -3 2082 -8 4 -4 7 -191
7 -415 l0 -408 96 2 c53 0 99 2 102 3 4 0 6 233 6 516 l0 515 -2288 0 -2289 0
0 -2289z"/>
<path d="M1678 4603 c-1 -32 -2 -77 0 -100 l3 -43 255 0 c142 0 254 -4 254 -9
0 -5 -9 -53 -20 -106 -11 -54 -22 -107 -24 -119 -3 -11 -41 -201 -85 -421 -45
-220 -84 -411 -86 -425 -7 -36 -11 -56 -49 -245 -19 -93 -37 -181 -40 -195 -3
-14 -10 -50 -16 -80 -6 -30 -14 -69 -16 -86 l-5 -31 120 0 120 1 6 25 c4 14 9
37 11 51 2 14 13 68 24 120 11 52 22 109 24 125 5 25 37 190 52 260 2 11 7 34
10 50 3 17 9 49 15 73 5 23 12 59 15 80 3 20 9 53 14 72 5 19 12 53 15 75 4
22 8 47 10 55 2 8 7 30 10 48 3 18 12 65 21 105 17 83 95 472 99 502 2 11 9
45 15 75 7 30 13 88 14 128 l2 72 -382 0 -382 0 -4 -57z"/>
<path d="M3093 4623 c-8 -21 -25 -60 -38 -88 -12 -27 -68 -156 -125 -285 -56
-129 -113 -260 -127 -290 -33 -74 -83 -188 -98 -225 -7 -16 -23 -52 -35 -80
-61 -135 -60 -131 -60 -266 l0 -129 28 -1 c15 0 140 -1 277 -2 l250 -2 2 -240
c1 -132 2 -247 2 -255 1 -13 20 -15 119 -15 l117 0 2 245 c2 135 5 251 8 257
3 9 32 12 104 10 93 -2 100 -1 103 18 6 31 2 195 -5 202 -4 3 -52 6 -107 6
l-100 0 0 171 c-1 94 -1 359 -1 589 l0 417 -150 0 -150 0 -16 -37z m73 -712
l1 -428 -154 0 c-84 0 -153 4 -153 9 0 5 13 43 29 86 24 63 224 622 262 732 6
16 12 30 13 30 1 0 2 -193 2 -429z"/>
<path d="M3792 3703 l3 -958 115 -1 c63 0 120 1 126 3 7 3 11 22 9 48 l-3 44
51 -38 c80 -59 99 -67 184 -75 44 -4 130 19 168 45 79 53 134 174 157 344 14
100 16 556 4 640 -28 190 -82 296 -180 348 -33 18 -58 22 -126 22 -75 0 -91
-4 -137 -29 -29 -16 -65 -42 -80 -57 -16 -16 -30 -29 -33 -29 -3 0 -5 145 -5
323 l0 322 -128 3 -127 3 2 -958z m486 213 c34 -17 58 -64 72 -133 12 -64 11
-656 -1 -713 -24 -114 -60 -149 -144 -144 -57 3 -127 28 -147 51 -10 13 -13
103 -14 442 0 234 3 433 8 443 12 25 99 64 151 66 26 2 59 -4 75 -12z"/>
<path d="M6086 4317 c-83 -188 -164 -373 -182 -412 -17 -38 -44 -99 -59 -135
-15 -36 -43 -98 -61 -139 -19 -40 -38 -90 -42 -110 -6 -29 -8 -166 -3 -251 1
-13 38 -15 276 -14 l275 2 1 -27 c1 -14 1 -128 0 -253 0 -171 3 -228 12 -230
52 -6 227 -1 228 7 1 5 2 120 3 255 l1 245 95 2 c52 1 101 2 108 2 9 1 12 30
12 111 l0 110 -32 1 c-18 0 -67 1 -108 2 l-75 2 0 588 0 587 -150 0 -150 0
-149 -343z m207 -355 c-1 -202 -2 -393 -2 -424 l-1 -57 -154 1 -154 2 40 110
c22 61 55 154 73 206 18 52 52 147 75 210 23 63 58 161 78 218 20 56 39 102
42 102 3 0 4 -165 3 -368z"/>
<path d="M4745 4098 c3 -7 28 -110 55 -228 28 -118 64 -273 81 -345 17 -71 32
-137 34 -145 1 -8 8 -33 13 -55 6 -22 13 -51 16 -65 2 -14 16 -72 30 -130 95
-390 104 -448 79 -486 -17 -26 -80 -44 -168 -47 l-60 -3 0 -94 0 -95 50 -1
c72 -3 192 20 247 46 56 26 109 74 132 119 17 31 53 157 62 216 3 17 12 56 20
87 8 32 19 79 24 105 6 27 21 98 35 158 14 61 28 120 30 131 14 62 67 297 80
349 8 33 26 114 40 180 15 66 35 156 46 200 30 125 38 115 -106 115 l-124 0
-7 -37 c-4 -21 -8 -47 -11 -58 -2 -11 -6 -36 -9 -55 -2 -19 -9 -57 -14 -85
-12 -63 -17 -89 -35 -195 -8 -47 -19 -112 -25 -145 -6 -33 -13 -76 -16 -95 -2
-19 -7 -46 -10 -60 -2 -14 -7 -38 -10 -55 -3 -16 -7 -41 -10 -55 -2 -14 -9
-59 -16 -100 -12 -78 -20 -76 -31 8 -4 23 -15 91 -26 150 -26 137 -97 532
-117 642 -8 47 -17 97 -20 113 l-6 27 -128 0 c-99 0 -128 -3 -125 -12z"/>
</g>
</svg>
